<svg width="1.25em" height="1.25em" viewBox="0 -1 24 26" fill="none"
    xmlns="http://www.w3.org/2000/svg">
    <title>Stempel</title>
    <path stroke="black" stroke-width=".5" fill="black" fill-rule="evenodd" clip-rule="evenodd" d="M21.5 15.967H16.654C13.369 13.681 14.879 10.35 16.094 7.668C16.6 6.551 17 5.669 17 4.967C17 1.706 14.484 0 11.999 0C9.515 0 7 1.706 7 4.967C7 5.673 7.401 6.556 7.91 7.675C9.127 10.352 10.638 13.676 7.346 15.967H2.5C1.122 15.967 0 17.089 0 18.467V21.5C0 21.776 0.224 22 0.5 22H1V23.5C1 23.776 1.224 24 1.5 24H22.5C22.776 24 23 23.776 23 23.5V22H23.5C23.776 22 24 21.776 24 21.5V18.467C24 17.088 22.878 15.967 21.5 15.967ZM22 23H2V22H22V23ZM23 21H1V18.467C1 17.64 1.673 16.967 2.5 16.967H7.5C7.599 16.967 7.695 16.938 7.777 16.884C11.938 14.119 10.062 9.992 8.82 7.261C8.398 6.333 8 5.456 8 4.967C8 2.241 10.073 1 11.999 1C13.926 1 16 2.241 16 4.967C16 5.453 15.604 6.328 15.184 7.255C13.944 9.991 12.071 14.125 16.224 16.883C16.306 16.938 16.402 16.966 16.501 16.966H21.501C22.328 16.966 23.001 17.639 23.001 18.466V21H23Z"/>
</svg>
