<svg width="1.25em" height="1.25em" viewBox="0 0 25 24" fill="none"
    xmlns="http://www.w3.org/2000/svg">
    <title>Fasade av et kontor</title>
    <mask id="path-1-inside-1_4869_11102" fill="white">
        <path fill-rule="evenodd" clip-rule="evenodd" d="M19 0H5V8H1H0V9V23V24H1H5H19H23H24V23V9V8H23H19V0ZM5 9H1V23H5V9ZM19 23V9H23V23H19Z"/>
    </mask>
    <path stroke="black" stroke-width=".5" fill="black" fill-rule="evenodd" clip-rule="evenodd" d="M19 0H5V8H1H0V9V23V24H1H5H19H23H24V23V9V8H23H19V0ZM5 9H1V23H5V9ZM19 23V9H23V23H19Z" fill="none"/>
    <path stroke="black" stroke-width=".5" fill="black" d="M5 0V-1H4V0H5ZM19 0H20V-1H19V0ZM5 8V9H6V8H5ZM0 8V7H-1V8H0ZM0 24H-1V25H0V24ZM24 24V25H25V24H24ZM24 8H25V7H24V8ZM19 8H18V9H19V8ZM5 9H6V8H5V9ZM1 9V8H0V9H1ZM1 23H0V24H1V23ZM5 23V24H6V23H5ZM19 9V8H18V9H19ZM19 23H18V24H19V23ZM23 9H24V8H23V9ZM23 23V24H24V23H23ZM5 1H19V-1H5V1ZM6 8V0H4V8H6ZM5 7H1V9H5V7ZM1 7H0V9H1V7ZM-1 8V9H1V8H-1ZM-1 9V23H1V9H-1ZM-1 23V24H1V23H-1ZM0 25H1V23H0V25ZM1 25H5V23H1V25ZM5 25H19V23H5V25ZM19 25H23V23H19V25ZM23 25H24V23H23V25ZM25 24V23H23V24H25ZM25 23V9H23V23H25ZM25 9V8H23V9H25ZM24 7H23V9H24V7ZM23 7H19V9H23V7ZM18 0V8H20V0H18ZM5 8H1V10H5V8ZM0 9V23H2V9H0ZM1 24H5V22H1V24ZM6 23V9H4V23H6ZM18 9V23H20V9H18ZM23 8H19V10H23V8ZM24 23V9H22V23H24ZM19 24H23V22H19V24Z" fill="black" mask="url(#path-1-inside-1_4869_11102)"/>
    <mask id="path-3-inside-2_4869_11102" fill="white">
        <path fill-rule="evenodd" clip-rule="evenodd" d="M9 5H10H11V6V7V8H10H9V7V6V5ZM13 5H14H15V6V7V8H14H13V7V6V5ZM10 11H9V12V13V14H10H11V13V12V11H10ZM13 11H14H15V12V13V14H14H13V13V12V11Z"/>
    </mask>
    <path stroke="black" stroke-width=".5" fill="black" fill-rule="evenodd" clip-rule="evenodd" d="M9 5H10H11V6V7V8H10H9V7V6V5ZM13 5H14H15V6V7V8H14H13V7V6V5ZM10 11H9V12V13V14H10H11V13V12V11H10ZM13 11H14H15V12V13V14H14H13V13V12V11Z" fill="black"/>
    <path stroke="black" stroke-width=".5" fill="black" d="M9 5V4H8V5H9ZM11 5H12V4H11V5ZM11 8V9H12V8H11ZM9 8H8V9H9V8ZM13 5V4H12V5H13ZM15 5H16V4H15V5ZM15 8V9H16V8H15ZM13 8H12V9H13V8ZM9 11V10H8V11H9ZM9 14H8V15H9V14ZM11 14V15H12V14H11ZM11 11H12V10H11V11ZM13 11V10H12V11H13ZM15 11H16V10H15V11ZM15 14V15H16V14H15ZM13 14H12V15H13V14ZM10 4H9V6H10V4ZM11 4H10V6H11V4ZM12 6V5H10V6H12ZM12 7V6H10V7H12ZM12 8V7H10V8H12ZM10 9H11V7H10V9ZM9 9H10V7H9V9ZM8 7V8H10V7H8ZM8 6V7H10V6H8ZM8 5V6H10V5H8ZM14 4H13V6H14V4ZM15 4H14V6H15V4ZM16 6V5H14V6H16ZM16 7V6H14V7H16ZM16 8V7H14V8H16ZM14 9H15V7H14V9ZM13 9H14V7H13V9ZM12 7V8H14V7H12ZM12 6V7H14V6H12ZM12 5V6H14V5H12ZM9 12H10V10H9V12ZM10 12V11H8V12H10ZM10 13V12H8V13H10ZM10 14V13H8V14H10ZM10 13H9V15H10V13ZM11 13H10V15H11V13ZM10 13V14H12V13H10ZM10 12V13H12V12H10ZM10 11V12H12V11H10ZM10 12H11V10H10V12ZM14 10H13V12H14V10ZM15 10H14V12H15V10ZM16 12V11H14V12H16ZM16 13V12H14V13H16ZM16 14V13H14V14H16ZM14 15H15V13H14V15ZM13 15H14V13H13V15ZM12 13V14H14V13H12ZM12 12V13H14V12H12ZM12 11V12H14V11H12Z" fill="black" mask="url(#path-3-inside-2_4869_11102)"/>
</svg>
  