<svg width="1.25em" height="1.25em" viewBox="-.3 0 24.5 24" fill="none"
    xmlns="http://www.w3.org/2000/svg">
    <title>Fagbrev</title>
    <path stroke="black" stroke-width=".5" fill-rule="evenodd" clip-rule="evenodd" d="M1.7 0H2.55C3.17924 0 3.72863 0.332854 4.02257 0.827586H17V2.81819L16.2688 2.91868C15.4203 3.0353 14.7219 3.619 14.4612 4.39519L14.2696 4.96552H10.2L10.2 12.4138C11.1389 12.4138 11.9 13.1548 11.9 14.069V22.3448C11.9 23.259 11.1389 24 10.2 24H7.65C6.71111 24 5.95 23.259 5.95 22.3448V14.069C5.95 13.1548 6.71112 12.4138 7.65 12.4138V4.96552L4.25 4.96552C4.25 5.87964 3.48888 6.62069 2.55 6.62069H1.7C0.761117 6.62069 0 5.87964 0 4.96552V1.65517C0 0.741047 0.761115 0 1.7 0ZM2.55 0.827586C3.01944 0.827586 3.4 1.19811 3.4 1.65517V4.96552C3.4 5.42258 3.01944 5.7931 2.55 5.7931H1.7C1.23056 5.7931 0.85 5.42258 0.85 4.96552V1.65517C0.85 1.19811 1.23056 0.827586 1.7 0.827586H2.55ZM4.25 4.13793L4.25 1.65517H16.15V2.09922C15.7434 2.1551 15.3623 2.28819 15.0228 2.48276C14.3814 2.85036 13.8886 3.43742 13.6533 4.13793H4.25ZM9.35 5.25323H8.5V12.1618H9.35V5.25323ZM7.65 13.2414H10.2C10.6694 13.2414 11.05 13.6119 11.05 14.069V22.3448C11.05 22.8019 10.6694 23.1724 10.2 23.1724H7.65C7.18056 23.1724 6.8 22.8019 6.8 22.3448V14.069C6.8 13.6119 7.18056 13.2414 7.65 13.2414Z" fill="black"/>
</svg>
