<svg width="1.25em" height="1.25em" viewBox="-.2 -7 26 24" fill="none"
    xmlns="http://www.w3.org/2000/svg">
    <title>Førerkort</title>
    <path stroke="black" stroke-width=".5" fill-rule="evenodd" clip-rule="evenodd" d="M18.2443 5H18.8333C21.6868 5 24 7.3132 24 10.1667C24 11.1792 23.1792 12 22.1667 12H18.9146C18.9699 12.1564 19 12.3247 19 12.5C19 13.3284 18.3284 14 17.5 14C16.6716 14 16 13.3284 16 12.5C16 12.3247 16.0301 12.1564 16.0854 12H6.91465C6.96992 12.1564 7 12.3247 7 12.5C7 13.3284 6.32843 14 5.5 14C4.67157 14 4 13.3284 4 12.5C4 12.3247 4.03008 12.1564 4.08535 12H2C0.895431 12 0 11.1046 0 10C0 7.23858 2.23858 5 5 5V2C5 0.895431 5.89543 0 7 0H13.5346C14.1685 0 14.7648 0.300479 15.142 0.809915L17.8037 4.40496L18.2443 5ZM17.5 11H22.1667C22.6269 11 23 10.6269 23 10.1667C23 7.86548 21.1345 6 18.8333 6H17H6H5C2.79086 6 1 7.79086 1 10C1 10.5523 1.44772 11 2 11H5.5H17.5ZM17 5L16.2596 4L14.3383 1.40496C14.1497 1.15024 13.8515 1 13.5346 1H7C6.44772 1 6 1.44772 6 2V4V5H7H15.7557H17Z" fill="black"/>
</svg>