<svg width="1.25em" height="1.25em" viewBox="0 0 24 24" fill="none"
    xmlns="http://www.w3.org/2000/svg">
    <title>Skjerm som viser et kursbevis</title>
    <path stroke="black" stroke-width=".5" fill-rule="evenodd" clip-rule="evenodd" d="M3 1H21C22.1046 1 23 1.89543 23 3V17C23 18.1046 22.1046 19 21 19H3C1.89543 19 1 18.1046 1 17V3C1 1.89543 1.89543 1 3 1ZM0 3C0 1.34315 1.34315 0 3 0H21C22.6569 0 24 1.34315 24 3V17C24 18.6569 22.6569 20 21 20H16V23H23C23.5523 23 24 23.4477 24 24H0C0 23.4477 0.447715 23 1 23H8V20H3C1.34315 20 0 18.6569 0 17V3ZM7.5 11C8.88071 11 10 9.88071 10 8.5C10 7.11929 8.88071 6 7.5 6C6.11929 6 5 7.11929 5 8.5C5 9.88071 6.11929 11 7.5 11ZM7.5 11C7.95963 11 8.41475 11.0905 8.83939 11.2664C9.26403 11.4423 9.64987 11.7001 9.97487 12.0251C10.2999 12.3501 10.5577 12.736 10.7336 13.1606C10.9095 13.5852 11 14.0404 11 14.5H10.3C10.3 14.1323 10.2276 13.7682 10.0869 13.4285C9.94615 13.0888 9.7399 12.7801 9.4799 12.5201C9.21989 12.2601 8.91123 12.0539 8.57151 11.9131C8.2318 11.7724 7.8677 11.7 7.5 11.7C7.1323 11.7 6.7682 11.7724 6.42849 11.9131C6.08877 12.0539 5.78011 12.2601 5.5201 12.5201C5.2601 12.7801 5.05385 13.0888 4.91314 13.4285C4.77242 13.7682 4.7 14.1323 4.7 14.5H4C4 14.0404 4.09053 13.5852 4.26642 13.1606C4.44231 12.736 4.70012 12.3501 5.02513 12.0251C5.35013 11.7001 5.73597 11.4423 6.16061 11.2664C6.58525 11.0905 7.04037 11 7.5 11ZM7.5 10.125C6.60254 10.125 5.875 9.39746 5.875 8.5C5.875 7.60254 6.60254 6.875 7.5 6.875C8.39746 6.875 9.125 7.60254 9.125 8.5C9.125 9.39746 8.39746 10.125 7.5 10.125ZM21 6H13V7H21V6ZM13 8H20V9H13V8ZM19 10H13V11H19V10Z" fill="black"/>
</svg>
