<svg width="1.25em" height="1.25em" viewBox="0 0 24 24" fill="none"
    xmlns="http://www.w3.org/2000/svg">
    <title>Sertifiseringsstempel</title>
    <path stroke="black" stroke-width=".4" fill-rule="evenodd" clip-rule="evenodd" d="M6.65792 13.5259L6.21702 13.3789L6.03827 13.8079L3.53827 19.8079L3.06445 20.9451L4.19677 20.4598L7.23719 19.1567L8.54024 22.1972L9.07698 23.4496L9.4777 22.1473L10.9998 17.2004L12.5219 22.1473L12.9226 23.4496L13.4594 22.1972L14.7624 19.1567L17.8028 20.4598L18.9352 20.9451L18.4613 19.8079L15.9613 13.8079L15.7826 13.3789L15.3417 13.5259L10.9998 14.9732L6.65792 13.5259ZM4.93516 19.0554L6.7826 14.6215L10.3783 15.8201L8.92263 20.5508L7.95938 18.3033L7.76242 17.8437L7.30285 18.0406L4.93516 19.0554ZM17.0645 19.0554L15.217 14.6215L11.6214 15.8201L13.077 20.5508L14.0402 18.3033L14.2372 17.8437L14.6968 18.0406L17.0645 19.0554Z" fill="black"/>
    <path stroke="black" stroke-width="1.2" d="M11.327 1.62174L11 1.33909L10.673 1.62174L9.69972 2.46307L8.47855 2.05824L8.0683 1.92224L7.87437 2.3085L7.29713 3.45826L6.01399 3.55157L5.58292 3.58292L5.55157 4.01399L5.45826 5.29713L4.3085 5.87437L3.92224 6.0683L4.05824 6.47855L4.46307 7.69972L3.62174 8.67302L3.33909 9L3.62174 9.32698L4.46307 10.3003L4.05824 11.5215L3.92224 11.9317L4.3085 12.1256L5.45826 12.7029L5.55157 13.986L5.58292 14.4171L6.01399 14.4484L7.29713 14.5417L7.87437 15.6915L8.0683 16.0778L8.47855 15.9418L9.69972 15.5369L10.673 16.3783L11 16.6609L11.327 16.3783L12.3003 15.5369L13.5215 15.9418L13.9317 16.0778L14.1256 15.6915L14.7029 14.5417L15.986 14.4484L16.4171 14.4171L16.4484 13.986L16.5417 12.7029L17.6915 12.1256L18.0778 11.9317L17.9418 11.5215L17.5369 10.3003L18.3783 9.32698L18.6609 9L18.3783 8.67302L17.5369 7.69972L17.9418 6.47855L18.0778 6.0683L17.6915 5.87437L16.5417 5.29713L16.4484 4.01399L16.4171 3.58292L15.986 3.55157L14.7029 3.45826L14.1256 2.3085L13.9317 1.92224L13.5215 2.05824L12.3003 2.46307L11.327 1.62174Z" />
    <circle stroke="black" stroke-width="1" cx="11" cy="9" r="5" />
</svg>
