<svg width="1.25em" height="1.25em" viewBox="0 0 25 24" fill="none"
    xmlns="http://www.w3.org/2000/svg">
    <title>Fasade av en skole</title>
    <mask id="path-1-inside-1_4767_4090" fill="white">
        <path fill-rule="evenodd" clip-rule="evenodd" d="M5 8V1H19V8V23H14V19V18H13H11H10V19V23H5V8ZM4 23V9H1V23H4ZM11 23H12H13V22V20V19H12H11V20V22V23ZM20 24H19H14H13H11H10H5H4H0V8H4V1V0H5H19H20V1V8H24V24H20ZM20 9V23H23V9H20ZM12 12C14.2091 12 16 10.2091 16 8C16 5.79086 14.2091 4 12 4C9.79086 4 8 5.79086 8 8C8 10.2091 9.79086 12 12 12ZM12 11.2C10.2327 11.2 8.8 9.76731 8.8 8C8.8 6.23269 10.2327 4.8 12 4.8C13.7673 4.8 15.2 6.23269 15.2 8C15.2 9.76731 13.7673 11.2 12 11.2ZM10.0625 8C10.0232 8.05223 10 8.11715 10 8.1875C10 8.36009 10.1399 8.5 10.3125 8.5H12.5V8V6.3125C12.5 6.13991 12.3601 6 12.1875 6C12.0149 6 11.875 6.13991 11.875 6.3125V6.625V7.875H10.3125C10.2103 7.875 10.1195 7.9241 10.0625 8Z"/>
    </mask>
    <path stroke="black" stroke-width=".5" fill-rule="evenodd" clip-rule="evenodd" d="M5 8V1H19V8V23H14V19V18H13H11H10V19V23H5V8ZM4 23V9H1V23H4ZM11 23H12H13V22V20V19H12H11V20V22V23ZM20 24H19H14H13H11H10H5H4H0V8H4V1V0H5H19H20V1V8H24V24H20ZM20 9V23H23V9H20ZM12 12C14.2091 12 16 10.2091 16 8C16 5.79086 14.2091 4 12 4C9.79086 4 8 5.79086 8 8C8 10.2091 9.79086 12 12 12ZM12 11.2C10.2327 11.2 8.8 9.76731 8.8 8C8.8 6.23269 10.2327 4.8 12 4.8C13.7673 4.8 15.2 6.23269 15.2 8C15.2 9.76731 13.7673 11.2 12 11.2ZM10.0625 8C10.0232 8.05223 10 8.11715 10 8.1875C10 8.36009 10.1399 8.5 10.3125 8.5H12.5V8V6.3125C12.5 6.13991 12.3601 6 12.1875 6C12.0149 6 11.875 6.13991 11.875 6.3125V6.625V7.875H10.3125C10.2103 7.875 10.1195 7.9241 10.0625 8Z" fill="white"/>
    <path stroke="black" stroke-width=".5" d="M5 1V0H4V1H5ZM19 1H20V0H19V1ZM19 23V24H20V23H19ZM14 23H13V24H14V23ZM14 18H15V17H14V18ZM10 18V17H9V18H10ZM10 23V24H11V23H10ZM5 23H4V24H5V23ZM4 9H5V8H4V9ZM4 23V24H5V23H4ZM1 9V8H0V9H1ZM1 23H0V24H1V23ZM11 23H10V24H11V23ZM13 23V24H14V23H13ZM13 19H14V18H13V19ZM11 19V18H10V19H11ZM0 24H-1V25H0V24ZM0 8V7H-1V8H0ZM4 8V9H5V8H4ZM4 0V-1H3V0H4ZM20 0H21V-1H20V0ZM20 8H19V9H20V8ZM24 8H25V7H24V8ZM24 24V25H25V24H24ZM20 23H19V24H20V23ZM20 9V8H19V9H20ZM23 23V24H24V23H23ZM23 9H24V8H23V9ZM10.0625 8L9.26291 7.39942L9.26291 7.39943L10.0625 8ZM12.5 8.5V9.5H13.5V8.5H12.5ZM11.875 7.875V8.875H12.875V7.875H11.875ZM4 1V8H6V1H4ZM19 0H5V2H19V0ZM20 8V1H18V8H20ZM20 23V8H18V23H20ZM14 24H19V22H14V24ZM13 19V23H15V19H13ZM13 18V19H15V18H13ZM13 19H14V17H13V19ZM11 19H13V17H11V19ZM10 19H11V17H10V19ZM11 19V18H9V19H11ZM11 23V19H9V23H11ZM5 24H10V22H5V24ZM4 8V23H6V8H4ZM3 9V23H5V9H3ZM4 8H1V10H4V8ZM0 9V23H2V9H0ZM1 24H4V22H1V24ZM11 24H12V22H11V24ZM12 24H13V22H12V24ZM12 22V23H14V22H12ZM12 20V22H14V20H12ZM12 19V20H14V19H12ZM12 20H13V18H12V20ZM11 20H12V18H11V20ZM12 20V19H10V20H12ZM12 22V20H10V22H12ZM12 23V22H10V23H12ZM19 25H20V23H19V25ZM14 25H19V23H14V25ZM13 25H14V23H13V25ZM11 25H13V23H11V25ZM10 25H11V23H10V25ZM5 25H10V23H5V25ZM4 25H5V23H4V25ZM0 25H4V23H0V25ZM-1 8V24H1V8H-1ZM4 7H0V9H4V7ZM3 1V8H5V1H3ZM3 0V1H5V0H3ZM5 -1H4V1H5V-1ZM19 -1H5V1H19V-1ZM20 -1H19V1H20V-1ZM21 1V0H19V1H21ZM21 8V1H19V8H21ZM24 7H20V9H24V7ZM25 24V8H23V24H25ZM20 25H24V23H20V25ZM21 23V9H19V23H21ZM20 24H23V22H20V24ZM24 23V9H22V23H24ZM23 8H20V10H23V8ZM15 8C15 9.65685 13.6569 11 12 11V13C14.7614 13 17 10.7614 17 8H15ZM12 5C13.6569 5 15 6.34315 15 8H17C17 5.23858 14.7614 3 12 3V5ZM9 8C9 6.34315 10.3431 5 12 5V3C9.23858 3 7 5.23858 7 8H9ZM12 11C10.3431 11 9 9.65685 9 8H7C7 10.7614 9.23858 13 12 13V11ZM7.8 8C7.8 10.3196 9.6804 12.2 12 12.2V10.2C10.785 10.2 9.8 9.21503 9.8 8H7.8ZM12 3.8C9.6804 3.8 7.8 5.6804 7.8 8H9.8C9.8 6.78497 10.785 5.8 12 5.8V3.8ZM16.2 8C16.2 5.6804 14.3196 3.8 12 3.8V5.8C13.215 5.8 14.2 6.78497 14.2 8H16.2ZM12 12.2C14.3196 12.2 16.2 10.3196 16.2 8H14.2C14.2 9.21503 13.215 10.2 12 10.2V12.2ZM11 8.1875C11 8.34112 10.9484 8.48558 10.862 8.60057L9.26291 7.39943C9.09807 7.61888 9 7.89317 9 8.1875H11ZM10.3125 7.5C10.6922 7.5 11 7.80781 11 8.1875H9C9 8.91237 9.58762 9.5 10.3125 9.5V7.5ZM12.5 7.5H10.3125V9.5H12.5V7.5ZM11.5 8V8.5H13.5V8H11.5ZM11.5 6.3125V8H13.5V6.3125H11.5ZM12.1875 7C11.8078 7 11.5 6.6922 11.5 6.3125H13.5C13.5 5.58762 12.9124 5 12.1875 5V7ZM12.875 6.3125C12.875 6.6922 12.5672 7 12.1875 7V5C11.4626 5 10.875 5.58762 10.875 6.3125H12.875ZM12.875 6.625V6.3125H10.875V6.625H12.875ZM12.875 7.875V6.625H10.875V7.875H12.875ZM10.3125 8.875H11.875V6.875H10.3125V8.875ZM10.862 8.60058C10.7383 8.76531 10.5381 8.875 10.3125 8.875V6.875C9.88245 6.875 9.50067 7.08288 9.26291 7.39942L10.862 8.60058Z" fill="black" mask="url(#path-1-inside-1_4767_4090)"/>
</svg>
