<svg width="23" height="23" xmlns="http://www.w3.org/2000/svg"><path d="M22.5 17.218a.5.5 0 0 1 .5.5v1.913A3.372 3.372 0 0 1 19.631 23H3.369A3.372 3.372 0 0 1 0 19.631v-1.913a.5.5 0 1 1 1 0v1.913A2.372 2.372 0 0 0 3.369 22h16.262A2.372 2.372 0 0 0 22 19.631v-1.913a.5.5 0 0 1 .5-.5zm-11.354.743l-6.999-6.999a.5.5 0 0 1 .707-.707L11 16.401V.5a.5.5 0 0 1 1 0v15.901l6.147-6.147a.5.5 0 0 1 .707.707l-7 7a.489.489 0 0 1-.163.108.487.487 0 0 1-.382 0 .499.499 0 0 1-.163-.108z" fill="#0067C5" fill-rule="evenodd"/></svg>