<svg width="1.25em" height="1.25em" viewBox="0 0 24 24" fill="none"
    xmlns="http://www.w3.org/2000/svg">
    <title>Liste med erfaringer</title>
    <path stroke="black" stroke-width=".5" fill-rule="evenodd" clip-rule="evenodd" d="M23 1H1V23H23V1ZM1 0H0V1V23V24H1H23H24V23V1V0H23H1ZM5 5H4V6H5H19H20V5H19H5ZM4 8H5H19H20V9H19H5H4V8ZM7.25 16.75C7.25 14.1303 9.37985 12 12 12C14.6198 12 16.75 14.1302 16.75 16.75C16.75 19.3698 14.6198 21.5 12 21.5C9.37985 21.5 7.25 19.3697 7.25 16.75ZM8.25 16.75C8.25 14.6825 9.93219 13 12 13C14.0675 13 15.75 14.6825 15.75 16.75C15.75 18.8175 14.0675 20.5 12 20.5C9.93219 20.5 8.25 18.8175 8.25 16.75ZM13.7082 15.3344L11.0166 17.7674L10.3012 17.0745C10.1428 16.9211 9.88575 16.9211 9.7274 17.0745C9.56906 17.2278 9.56906 17.4768 9.7274 17.6302L10.7202 18.5917C10.7981 18.6664 10.9006 18.7067 11.0072 18.7067C11.1088 18.7067 11.2077 18.6697 11.2835 18.6016L14.2625 15.9087C14.4263 15.7603 14.435 15.5114 14.2818 15.3527C14.1286 15.1942 13.8716 15.1864 13.7082 15.3344Z" fill="black"/>
</svg>
