<svg width="1.25em" height="1.25em" viewBox="-.2 0 25.5 24" fill="none"
    xmlns="http://www.w3.org/2000/svg">
    <title>Dialogbobler</title>
    <mask id="path-1-inside-1_5151_5639" fill="white">
        <path fill-rule="evenodd" clip-rule="evenodd" d="M8 15.0298H4.5985L1 17.2137L0 17.8206V16.6508V5C0 3.34314 1.34315 2 3 2H13C14.6569 2 16 3.34315 16 5V5.46075V6.93272V7.17954H21C22.6569 7.17954 24 8.52269 24 10.1795V21.8304V23.0001L23 22.3932L19.4015 20.2093H11.1313C9.48975 20.2093 8.15302 18.8899 8.13157 17.2485L8.10258 15.0298H8ZM1 5V16.0439L4.07968 14.1749L4.3188 14.0298H4.5985H8V11.3935V9.93272C8 8.27586 9.34315 6.93272 11 6.93272H15V5.46075V5C15 3.89543 14.1046 3 13 3H3C1.89543 3 1 3.89543 1 5ZM19.9203 19.3544L23 21.2235V10.1795C23 9.07497 22.1046 8.17954 21 8.17954H11.0395C9.92467 8.17954 9.02506 9.09098 9.03963 10.2057L9.13149 17.2354C9.14579 18.3297 10.0369 19.2093 11.1313 19.2093H19.4015H19.6812L19.9203 19.3544Z"/>
    </mask>
    <path stroke="black" stroke-width=".5" fill-rule="evenodd" clip-rule="evenodd" d="M8 15.0298H4.5985L1 17.2137L0 17.8206V16.6508V5C0 3.34314 1.34315 2 3 2H13C14.6569 2 16 3.34315 16 5V5.46075V6.93272V7.17954H21C22.6569 7.17954 24 8.52269 24 10.1795V21.8304V23.0001L23 22.3932L19.4015 20.2093H11.1313C9.48975 20.2093 8.15302 18.8899 8.13157 17.2485L8.10258 15.0298H8ZM1 5V16.0439L4.07968 14.1749L4.3188 14.0298H4.5985H8V11.3935V9.93272C8 8.27586 9.34315 6.93272 11 6.93272H15V5.46075V5C15 3.89543 14.1046 3 13 3H3C1.89543 3 1 3.89543 1 5ZM19.9203 19.3544L23 21.2235V10.1795C23 9.07497 22.1046 8.17954 21 8.17954H11.0395C9.92467 8.17954 9.02506 9.09098 9.03963 10.2057L9.13149 17.2354C9.14579 18.3297 10.0369 19.2093 11.1313 19.2093H19.4015H19.6812L19.9203 19.3544Z" fill="white"/>
    <path d="M4.5985 15.0298V14.0298H4.3188L4.07968 14.1749L4.5985 15.0298ZM1 17.2137L1.51883 18.0686L1 17.2137ZM0 17.8206H-1V19.5972L0.518825 18.6755L0 17.8206ZM16 7.17954H15V8.17954H16V7.17954ZM24 23.0001L23.4812 23.855L25 24.7768V23.0001H24ZM23 22.3932L23.5188 21.5383L23 22.3932ZM19.4015 20.2093L19.9203 19.3544L19.6812 19.2093H19.4015V20.2093ZM8.13157 17.2485L9.13149 17.2354V17.2354L8.13157 17.2485ZM8.10258 15.0298L9.10249 15.0167L9.0896 14.0298H8.10258V15.0298ZM1 16.0439H0V17.8206L1.51883 16.8988L1 16.0439ZM4.07968 14.1749L3.56085 13.32H3.56085L4.07968 14.1749ZM4.3188 14.0298V13.0298H4.03909L3.79997 13.1749L4.3188 14.0298ZM8 14.0298V15.0298H9V14.0298H8ZM15 6.93272V7.93272H16V6.93272H15ZM23 21.2235L22.4812 22.0783L24 23.0001V21.2235H23ZM19.9203 19.3544L20.4391 18.4995L19.9203 19.3544ZM9.03963 10.2057L8.03971 10.2187V10.2187L9.03963 10.2057ZM9.13149 17.2354L8.13157 17.2485L9.13149 17.2354ZM19.6812 19.2093L20.2 18.3544L19.9609 18.2093H19.6812V19.2093ZM4.5985 16.0298H8V14.0298H4.5985V16.0298ZM1.51883 18.0686L5.11733 15.8846L4.07968 14.1749L0.481175 16.3588L1.51883 18.0686ZM0.518825 18.6755L1.51883 18.0686L0.481175 16.3588L-0.518825 16.9657L0.518825 18.6755ZM-1 16.6508V17.8206H1V16.6508H-1ZM-1 5V16.6508H1V5H-1ZM3 1C0.790862 1 -1 2.79086 -1 5H1C1 3.89543 1.89543 3 3 3V1ZM13 1H3V3H13V1ZM17 5C17 2.79086 15.2091 1 13 1V3C14.1046 3 15 3.89543 15 5H17ZM17 5.46075V5H15V5.46075H17ZM17 6.93272V5.46075H15V6.93272H17ZM17 7.17954V6.93272H15V7.17954H17ZM16 8.17954H21V6.17954H16V8.17954ZM21 8.17954C22.1046 8.17954 23 9.07497 23 10.1795H25C25 7.9704 23.2091 6.17954 21 6.17954V8.17954ZM23 10.1795V21.8304H25V10.1795H23ZM23 21.8304V23.0001H25V21.8304H23ZM24.5188 22.1452L23.5188 21.5383L22.4812 23.2481L23.4812 23.855L24.5188 22.1452ZM23.5188 21.5383L19.9203 19.3544L18.8827 21.0642L22.4812 23.2481L23.5188 21.5383ZM19.4015 19.2093H11.1313V21.2093H19.4015V19.2093ZM11.1313 19.2093C10.0369 19.2093 9.14579 18.3297 9.13149 17.2354L7.13166 17.2616C7.16025 19.4501 8.94256 21.2093 11.1313 21.2093V19.2093ZM9.13149 17.2354L9.10249 15.0167L7.10266 15.0428L7.13166 17.2616L9.13149 17.2354ZM8 16.0298H8.10258V14.0298H8V16.0298ZM2 16.0439V5H0V16.0439H2ZM3.56085 13.32L0.481175 15.189L1.51883 16.8988L4.5985 15.0298L3.56085 13.32ZM3.79997 13.1749L3.56085 13.32L4.5985 15.0298L4.83762 14.8846L3.79997 13.1749ZM4.5985 13.0298H4.3188V15.0298H4.5985V13.0298ZM8 13.0298H4.5985V15.0298H8V13.0298ZM7 11.3935V14.0298H9V11.3935H7ZM7 9.93272V11.3935H9V9.93272H7ZM11 5.93272C8.79086 5.93272 7 7.72358 7 9.93272H9C9 8.82815 9.89543 7.93272 11 7.93272V5.93272ZM15 5.93272H11V7.93272H15V5.93272ZM14 5.46075V6.93272H16V5.46075H14ZM14 5V5.46075H16V5H14ZM13 4C13.5523 4 14 4.44772 14 5H16C16 3.34315 14.6569 2 13 2V4ZM3 4H13V2H3V4ZM2 5C2 4.44772 2.44771 4 3 4V2C1.34315 2 0 3.34314 0 5H2ZM23.5188 20.3686L20.4391 18.4995L19.4015 20.2093L22.4812 22.0783L23.5188 20.3686ZM22 10.1795V21.2235H24V10.1795H22ZM21 9.17954C21.5523 9.17954 22 9.62726 22 10.1795H24C24 8.52269 22.6569 7.17954 21 7.17954V9.17954ZM11.0395 9.17954H21V7.17954H11.0395V9.17954ZM10.0395 10.1926C10.0323 9.63526 10.4821 9.17954 11.0395 9.17954V7.17954C9.36727 7.17954 8.01787 8.5467 8.03971 10.2187L10.0395 10.1926ZM10.1314 17.2224L10.0395 10.1926L8.03971 10.2187L8.13157 17.2485L10.1314 17.2224ZM11.1313 18.2093C10.5841 18.2093 10.1386 17.7695 10.1314 17.2224L8.13157 17.2485C8.15302 18.8899 9.48975 20.2093 11.1313 20.2093V18.2093ZM19.4015 18.2093H11.1313V20.2093H19.4015V18.2093ZM19.6812 18.2093H19.4015V20.2093H19.6812V18.2093ZM20.4391 18.4995L20.2 18.3544L19.1624 20.0642L19.4015 20.2093L20.4391 18.4995Z" fill="black" mask="url(#path-1-inside-1_5151_5639)"/>
    <path stroke="black" stroke-width=".5" fill-rule="evenodd" clip-rule="evenodd" d="M13 14C13 14.5523 12.5523 15 12 15C11.4477 15 11 14.5523 11 14C11 13.4477 11.4477 13 12 13C12.5523 13 13 13.4477 13 14ZM17 14C17 14.5523 16.5523 15 16 15C15.4477 15 15 14.5523 15 14C15 13.4477 15.4477 13 16 13C16.5523 13 17 13.4477 17 14ZM20 15C20.5523 15 21 14.5523 21 14C21 13.4477 20.5523 13 20 13C19.4477 13 19 13.4477 19 14C19 14.5523 19.4477 15 20 15Z" fill="black"/>
</svg>
